<svg id="Layer_1" data-name="Layer 1" xmlns="http://www.w3.org/2000/svg" viewBox="0 0 1317 891"><defs><style>.cls-1{fill:#fff;stroke-width:6px;}.cls-1,.cls-2,.cls-3{stroke:#000;stroke-miterlimit:10;}.cls-2,.cls-4{fill:none;}.cls-2{stroke-width:20px;}.cls-5{isolation:isolate;}.cls-6{font-size:12px;font-family:Charter-Bold, Charter;font-weight:700;}.cls-7{letter-spacing:0.02em;}</style></defs><title>ClipButler Logo 2</title><ellipse class="cls-1" cx="658.5" cy="445.5" rx="655.5" ry="442.5"/><ellipse class="cls-2" cx="658.5" cy="445" rx="633.5" ry="421"/><path class="cls-3" d="M1674.86,934.43a1.15,1.15,0,0,1,0-2.3A1.15,1.15,0,0,1,1674.86,934.43Z" transform="translate(-941.5 -354.5)"/><path d="M1674.86,932.07" transform="translate(-941.5 -354.5)"/><path d="M1674.86,933.57a1.5,1.5,0,0,0,0-3,1.5,1.5,0,0,0,0,3Z" transform="translate(-941.5 -354.5)"/><rect class="cls-4" x="248.06" y="217.03" width="820.87" height="153.26"/><g class="cls-5"><path d="M1352.65,684.77a87.56,87.56,0,0,1-14.65,3.86,89.66,89.66,0,0,1-15.27,1.28,59.92,59.92,0,0,1-14.27-1.63,42.37,42.37,0,0,1-12-4.84,46.68,46.68,0,0,1-17.39-18,50.94,50.94,0,0,1-6.27-25,53.24,53.24,0,0,1,3.8-20.25,46,46,0,0,1,11-16.22,44.21,44.21,0,0,1,15.76-9.84,58,58,0,0,1,20.14-3.31,80.72,80.72,0,0,1,14.44,1.32,93.63,93.63,0,0,1,14.65,4v23.8h-10.44l-2.85-15.24-1.95-2.44a42.34,42.34,0,0,0-5.74-1.6,28.56,28.56,0,0,0-5.53-.55q-14.9,0-23.63,10.82t-8.73,29.4q0,19.07,9.12,29.85T1328,680.94a25.57,25.57,0,0,0,3.93-.35c1.46-.23,3-.56,4.7-1l2.15-2.16,3.41-17.19h10.44Z" transform="translate(-941.5 -354.5)"/><path d="M1361.21,688.18v-6.27l8.23-.83,2-2V595.28h-10.23v-5.71l21.5-6.68H1389v95.89l2.15,2.3,8.28.83v6.27Z" transform="translate(-941.5 -354.5)"/><path d="M1425.93,617.47h6.89v61.59l2.08,2.16,8,.55v6.41h-37.37v-6.41l7.72-.55,2-2.16v-49.2h-9.39v-5.71ZM1424.4,585a10.43,10.43,0,0,1,7.65,2.95,10.12,10.12,0,0,1,3,7.49,10.61,10.61,0,0,1-3,7.75,10.47,10.47,0,0,1-18-7.48,10.57,10.57,0,0,1,3-7.65A9.8,9.8,0,0,1,1424.4,585Z" transform="translate(-941.5 -354.5)"/><path d="M1448.06,719.42v-6.61l7.72-.7,2-2.15v-80.1h-9.67v-5.71l20.66-6.68h6.4V626a63.51,63.51,0,0,1,12.18-6.82,28.24,28.24,0,0,1,10.37-2.15q11.63,0,19.28,9.5t7.65,24.11q0,17.12-10.23,27.31t-27.55,10.2c-2,0-3.89-.06-5.81-.18s-3.87-.29-5.82-.52l-.07,22.75,2.16,2,8.84.56v6.61Zm27.06-39.8c1.54.32,3.05.57,4.56.73a43.25,43.25,0,0,0,4.56.24,18.22,18.22,0,0,0,15.28-7.45q5.67-7.44,5.67-20,0-11.21-5-17.5t-13.81-6.3a21.36,21.36,0,0,0-5.05.67,45.74,45.74,0,0,0-6.23,2Z" transform="translate(-941.5 -354.5)"/><path d="M1533.09,592.56h42.8q15.72,0,23.66,5.6t7.93,16.74a20.19,20.19,0,0,1-5.15,14.09q-5.14,5.67-15.17,8.32,12.25.21,19.07,6.26t6.82,16.7q0,13.5-9.26,20.7t-26.65,7.21h-44.05v-6.89l8.42-.77,2.3-2.23v-76l-2.3-2-8.42-.7Zm29.3,42.45c.37,0,.83.08,1.39.1s1.37,0,2.44,0q11.13,0,16.38-4.49t5.26-14q0-8.35-4.87-12.39t-15-4c-1.11,0-2.87.09-5.28.28h-.42Zm-.07,45.09.49.07c2.87.14,5,.21,6.4.21q12.52,0,18.23-4.57t5.71-14.67q0-9.14-5.36-13.63t-16.08-4.5c-2.09,0-3.82,0-5.22.07s-2.78.12-4.17.21Z" transform="translate(-941.5 -354.5)"/><path d="M1641.86,617.06h6.82v44.18q0,8.5,3.16,12.22t10.41,3.72a31,31,0,0,0,5.39-.52,60.27,60.27,0,0,0,6.85-1.71V629.44h-9.25v-5.7l20.25-6.68H1692v62l2,2.16,7.44.55v6.41h-26.93v-7.87a69.12,69.12,0,0,1-13.11,7,31,31,0,0,1-10.82,2.12q-9.88,0-14.72-6T1631,665.07V629.44h-9.25v-5.7Z" transform="translate(-941.5 -354.5)"/><path d="M1716,629.17h-9.26v-5.43l10.51-6,7.45-14.82h9v17.68h21.09v8.56h-21.09V664.7c0,5.35.86,9,2.58,10.95s4.8,2.92,9.25,2.92a46.66,46.66,0,0,0,4.91-.24,36.53,36.53,0,0,0,4.35-.73v6.78a85.37,85.37,0,0,1-11.66,3.35,50.48,50.48,0,0,1-10.12,1.14,26.1,26.1,0,0,1-6.65-.76,16.23,16.23,0,0,1-5.18-2.37,10.12,10.12,0,0,1-4-4.7c-.77-1.88-1.15-5.34-1.15-10.4Z" transform="translate(-941.5 -354.5)"/><path d="M1758.28,688.18v-6.27l8.22-.83,2-2V595.28h-10.23v-5.71l21.5-6.68H1786v95.89l2.16,2.3,8.28.83v6.27Z" transform="translate(-941.5 -354.5)"/><path d="M1868.57,670.5v10.58a65.26,65.26,0,0,1-14.77,6.26,55.07,55.07,0,0,1-14.9,2.09q-16,0-25.6-9.81t-9.65-26q0-16.21,9.85-26.48t25.4-10.26q14.07,0,21.87,8.45t7.8,23.77v2.71h-46.69v.42q0,12.18,6.13,19.13t16.87,7a36.31,36.31,0,0,0,11.5-2A57.19,57.19,0,0,0,1868.57,670.5Zm-18.79-26.23v-1.54c0-5.79-1.06-10.24-3.2-13.32a10.47,10.47,0,0,0-9.18-4.63,12.58,12.58,0,0,0-10.51,5.19q-4,5.17-4.31,14.3Z" transform="translate(-941.5 -354.5)"/><path d="M1877.13,688.18v-6.41l7.59-.55,2-2.16v-49.2h-10.3v-5.71l20.94-6.68h6.89l-.62,14.55c2.45-2.6,5.08-5.12,7.86-7.55s5.71-4.74,8.77-6.93c.79-.14,1.42-.23,1.91-.27a12.75,12.75,0,0,1,1.29-.07,18.55,18.55,0,0,1,4.63.59,22.59,22.59,0,0,1,4.76,1.84l-1.81,19.69h-7.44a10.58,10.58,0,0,0-3.86-3.89,10.94,10.94,0,0,0-5.4-1.25,12.24,12.24,0,0,0-4.35,1,40.13,40.13,0,0,0-5.74,3v40.92l2.09,2.16,10.16.55v6.41Z" transform="translate(-941.5 -354.5)"/></g><g id="Shaped_BowTie" data-name="Shaped BowTie"><path class="cls-3" d="M1957.26,742.15c-87.7,19-177.52,32-262.63,61.65-11.41-11.73-31.84-15.89-45.34-15.39-9.48.34-6.6.88-14,1.84-6.32-1.33-16.3-1.18-22.5-.76-23.12,1.58-43.9,9.85-62.44,23.35-111.27-38-226.9-48.06-339.58-64.13-25.54-3.64-34,9.28-29.48,31,15.3,72.94,33.93,149.69,45.35,223.52,3.39,22,17.77,30.45,38.78,20.42C1357.94,979.47,1452,920.78,1552,888.91c2.4,2,11.65,9.67,13.07,10.64,35.15,24,78.13,15.48,109.09-9.85,101.13,30.37,189.73,91,281.62,136.51,21.22,10.51,34.42,3,38.77-19.35,9.16-47.08,15.69-103.24,25.33-152.28C1999.16,816.28,1979.45,779.05,1957.26,742.15ZM1573.79,862.63a.56.56,0,1,1,0-1.11A.56.56,0,1,1,1573.79,862.63Z" transform="translate(-941.5 -354.5)"/></g><text class="cls-6" transform="translate(934.19 468.64)"><tspan class="cls-7">L</tspan><tspan x="6.74" y="0">orem ipsum</tspan></text></svg>